<svg id="Layer_1" data-name="Layer 1" xmlns="http://www.w3.org/2000/svg" viewBox="0 0 373.788 374.477"><defs><style>.cls-1{fill:#fab944;}.cls-2{fill:#1b1d3c;}</style></defs><path class="cls-1" d="M233.322,347.509c.522,2.261,1.69,1.865,3.28,3.556s2.266,1.058,3.858,2.75,1,2.241,2.592,3.931,1.418,1.859,3.011,3.553,1.705,1.593,3.3,3.289,1.351,1.96,3.007,3.6c1.634,1.617,2.211,1.026,3.9,2.582s1.658,1.6,3.352,3.156,1.4,1.869,3.1,3.424,2.364.834,4.059,2.393,1.7,1.561,3.4,3.123,1.278,2.018,2.94,3.619,1.947,1.3,3.565,2.934,1.11,2.14,2.73,3.772,1.647,1.6,3.265,3.232,2.022,1.237,3.644,2.871,1.071,2.186,2.695,3.823,2.158,1.093,3.834,2.677,1.362,1.918,3.085,3.445,1.584,1.688,3.308,3.217,1.8,1.443,3.52,2.97,1.653,1.614,3.379,3.145,1.55,1.735,3.279,3.268,2.761.429,4.412,2.046.573,2.652,2.134,4.34,2.067,1.225,3.629,2.915,1.91,1.365,3.471,3.053,1.707,1.56,3.271,3.252,1.4,1.848,2.967,3.543,1.63,1.613,3.241,3.265.961,2.286,2.61,3.888,1.668,1.587,3.319,3.192,1.406,1.851,3.055,3.453,1.987,1.261,3.639,2.867,2.125,1.125,3.78,2.734,1.236,2.036,2.849,3.686,1.535,1.731,3.112,3.428,1.836,1.459,3.414,3.158,1.766,1.52,3.343,3.216.881,2.349,2.462,4.049,2.086,1.235,3.669,2.938,1.006,2.265,3.226,2.955,2.2.53,4.455.021,2.267-.484,4.527-.994,2.036-1.513,4.3-2.022,2.389.054,4.651-.455,2.384.016,4.649-.494,2.149-1.032,4.379-1.681c2.213-.643,2.383-.173,4.552-.952s1.9-1.537,4.071-2.317,2.373-.22,4.545-1,2.2-.695,4.376-1.475,1.81-1.8,3.986-2.581,2.408-.088,4.638-.7,2.064-1.343,4.326-1.778,2.453.542,4.717.106,2.129-1.142,4.394-1.578,2.376.14,4.641-.3,2.352-.009,4.621-.445,2.116-1.192,4.365-1.725,2.06-1.129,4.271-1.755,2.389-.009,4.6-.636,2.177-.761,4.391-1.388,2.423.109,4.638-.518,2.222-.616,4.441-1.244,2.041-1.259,4.269-1.852,2.138-.93,4.367-1.486,2.33-.165,4.562-.723,2.26-.448,4.492-1,2.363-.037,4.6-.594,1.911-1.861,4.147-2.419,2.446.272,4.673-.322,2.226-.581,4.438-1.21,2.079-1.1,4.293-1.734,2.5.378,4.716-.252,1.855-1.9,4.07-2.526,2.248-.529,4.466-1.16,2.333-.232,4.554-.853c2.242-.628,2.112-1.1,4.356-1.717s2.449.113,4.7-.5,2.285-.484,4.532-1.1,2.125-1.063,4.372-1.682,2.178-.888,4.429-1.509,2.593.455,4.266-1.174,1.293-1.784,1.967-4.011.483-2.288,1.158-4.518.876-2.17,1.551-4.4-.135-2.477.54-4.708,1.651-1.939,2.327-4.174.68-2.259,1.212-4.532c.525-2.247-.219-2.4.16-4.672s.538-2.253.918-4.532,1.2-2.142,1.579-4.421-.42-2.413-.04-4.693.572-2.251.952-4.535.717-2.194,1.248-4.447-.187-2.423.489-4.62.418-2.28,1.1-4.48,1.387-1.981,2.065-4.181,1.077-2.078,1.755-4.278.741-2.185,1.42-4.389,0-2.411.608-4.634.363-2.273.9-4.507.393-2.273.936-4.51.459-2.257,1-4.494.483-2.252,1.025-4.49,1.659-1.971,2.2-4.212.019-2.367.66-4.582.14-2.379.877-4.56,1.156-2.043,1.894-4.226,1.223-2.02,1.961-4.2-.229-2.511.509-4.7.617-2.229,1.356-4.417,2.111-1.747,2.779-3.958.379-2.3.972-4.52.612-2.219,1.205-4.443.446-2.264,1.039-4.488-.063-2.4.53-4.625,1.6-1.959,2.2-4.188-.541-2.513-.013-4.758c.519-2.207,1.689-1.951,2.141-4.173s.309-2.253.761-4.478-.652-2.449-.2-4.674.951-2.123,1.4-4.348.125-2.3.579-4.525,1.863-2.15,1.282-4.349-.933-2.154-2.426-3.858-1.56-1.649-3.055-3.355-2.465-.852-3.958-2.556-1.278-1.9-2.774-3.606-.6-2.5-2.1-4.21-2.38-.921-3.925-2.59c-1.56-1.686-.937-2.279-2.542-3.922s-1.7-1.557-3.3-3.2-1.395-1.848-3-3.49-1.637-1.62-3.245-3.267-2.552-.73-4.163-2.379-1.1-2.144-2.761-3.744-1.37-1.909-3.072-3.456-1.971-1.255-3.676-2.8-1.483-1.787-3.185-3.333-2.069-1.151-3.775-2.7-1.376-1.918-3.085-3.47-1.593-1.672-3.282-3.246-1.759-1.478-3.421-3.067-1.753-1.5-3.417-3.087-1.32-1.945-2.981-3.533-2.182-1.051-3.848-2.643-1.2-2.084-2.868-3.678-2.288-.948-3.944-2.555-1.71-1.541-3.347-3.154-.888-2.376-2.527-3.99-2.518-.717-4.155-2.329-1.308-1.952-2.949-3.568-1.084-2.185-2.727-3.8-2.028-1.218-3.612-2.894-1.5-1.737-3.022-3.467-1.473-1.777-3-3.509-1.8-1.487-3.318-3.217-1.589-1.677-3.113-3.411-.882-2.3-2.409-4.041-1.892-1.424-3.477-3.108c-1.606-1.7-1.362-1.959-3.025-3.608s-1.792-1.522-3.456-3.173-1.643-1.668-3.305-3.316-2.251-1.063-3.917-2.715-1.91-1.411-3.579-3.066-.7-2.694-2.962-3.32-2.045.4-4.315.962-2.282.533-4.555,1.1-2.444-.113-4.717.456-2.038,1.512-4.311,2.081-2.6-.718-4.877-.149-2.23.849-4.474,1.541c-2.2.679-2.327.409-4.491,1.209s-1.642,2.219-3.808,3.019-2.537-.2-4.7.6-2.06,1.089-4.227,1.89-2,1.266-4.169,2.068-2.1,1.159-4.334,1.78-2.522-.64-4.785-.208-2.088,1.363-4.354,1.795-2.392-.234-4.658.2-2.233.607-4.5,1.039-2.138,1.125-4.408,1.557-2.313.1-4.56.638-2.275.328-4.481.974-2.165.8-4.374,1.443-2.414-.054-4.623.593-1.9,1.7-4.112,2.343-2.4,0-4.617.644-2.233.582-4.447,1.227-2.016,1.3-4.223,1.937-2.313.286-4.522.927-2.323.251-4.533.892-2.352.155-4.562.8-1.872,1.82-4.086,2.463-2.245.572-4.473,1.164-2.242.554-4.477,1.094-2.192.733-4.43,1.274-2.226.59-4.465,1.131-2.56-.79-4.8-.248-2.181.795-4.423,1.337-2.209.705-4.439,1.294c-2.215.585-2.25.482-4.452,1.114s-2.219.582-4.423,1.215-1.969,1.455-4.174,2.088-2.33.2-4.535.83-2.017,1.3-4.226,1.938-3.275-1.291-4.865.369-.638,2.389-1.17,4.617-.061,2.342-.593,4.572-.449,2.25-.981,4.48-1.2,2.071-1.734,4.3.43,2.465-.1,4.7-.269,2.3-.814,4.533-1.029,2.115-1.585,4.343-1.441,2.011-2,4.243-.32,2.291-.877,4.522-.22,2.317-.777,4.549-.618,2.221-1.175,4.457.148,2.42-.439,4.648-1.471,1.985-2.086,4.2-.759,2.177-1.375,4.393-.224,2.325-.84,4.542-.907,2.136-1.523,4.353-.056,2.376-.673,4.6-1.5,1.954-2.181,4.155-.281,2.315-1.027,4.5-.56,2.246-1.306,4.428-.468,2.277-1.215,4.46-.486,2.272-1.232,4.455-1.369,1.974-2.117,4.16-1.189,2.061-1.845,4.276-.185,2.346-.744,4.575.025,2.377-.535,4.609-.737,2.187-1.3,4.419-.808,2.17-1.367,4.4-.135,2.342-.7,4.578-1.117,2.1-1.661,4.337-1.058,2.115-1.585,4.354-.216,2.316-.744,4.558-.567,2.233-1.094,4.475.11,2.393-.418,4.636-.481,2.258-1.01,4.5-.106,2.372-.711,4.6c-.61,2.242-1.388,2.029-2.072,4.248s-.275,2.349-.961,4.571-1.492,1.974-2.178,4.2-.581,2.255-1.267,4.478.408,2.7-.7,4.746C234.238,345.392,232.8,345.238,233.322,347.509Z" transform="translate(-233.212 -109.798)"/><path class="cls-2" d="M441.685,365.691c4.7-2.092,8.75-4.833,13.409-7.28,6.359-3.339,12.95-6.033,18.71-9.773-.945-5.467-3.253-11.859-6.406-19-2.443-5.529-4.949-11.822-8.874-18-3.344-5.267-7.71-10.41-12.221-15.946-4-4.914-7.666-10.7-12.652-15.686-4.667-4.667-10.16-8.042-14.767-11.846a168.94,168.94,0,0,0-15.338-10.917,139.055,139.055,0,0,0-16.354-9.2,90.893,90.893,0,0,0-17.182-6.334c-2.135,3.2-5.062,5.375-7.083,8.785-2.179,3.677-4.333,7.529-6.278,11.546-1.891,3.9-3.414,7.97-5.24,11.968,6.135,2.871,12.867,5.453,19.056,9.184a181.674,181.674,0,0,1,17.3,12.066c5.39,4.181,10.142,9.431,15.236,14.525,4.112,4.113,7.31,8.86,10.878,13.2,3.7,4.5,7.906,8.444,11.049,13.09,3.273,4.84,6.968,9.338,9.675,14.224C437.453,355.442,439.423,360.63,441.685,365.691Z" transform="translate(-233.212 -109.798)"/><path class="cls-2" d="M462.859,250.8c4.9,4.9,9.426,9.944,13.686,14.981,4.489,5.308,8.027,11.09,11.787,16.473,4,5.728,8.34,10.975,11.5,16.694,3.4,6.158,6.981,11.946,9.367,17.976.374-.523.343-.292.708-.823,1.04-1.509,1.653-3.337,2.625-4.9,1.85-2.992,4.166-5.753,5.65-8.767.19-.435-.636-1.611-.355-2.281.343-.817.676-1.782,1.15-2.785.257-.7,1.453-1.053,1.684-1.768,1.148-3.57,1.528-7.371,2.2-10.981.054-.479.876-1.048.931-1.586s-1.35-1.252-1.272-1.768c.008-.111.194-.151.2-.263.2-3.236.916-6.489.728-9.752-.025-.3-.423-.707-.467-1.16-.053-.528-.44-1.038-.484-1.514-.011-.1,1.378-.281,1.363-.377-.108-.677-1-1.232-1.13-1.906-.689-3.446-.757-7.248-1.911-10.724-.131-.4-1.867-.205-2-.567-.03-.083.058-.08.024-.163-.222-.521.118-1.263-.081-1.763s-.73-.884-.888-1.264c-.476-.988-.055-2.772-.769-4.046-.307-.549-.629-.387-.953-.926-2.021-3.272-4.423-6.562-6.625-9.707-1-1.433-2.156-2.768-3.2-4.173-.133-.175,0-.285-.139-.452-.836-.979-.678-1.113-1.513-2.093-2.189-2.573-4.124-5.155-6.21-7.424-.326-.35-1.395.674-1.729.332-.25-.257.315-1.312.061-1.566-.068-.068-1.009.887-1.078.82s.65-.892.594-.949c-.1-.1-.127-.273-.226-.376-.134-.138-.566.288-.7.152-.494-.494-.736-1.231-1.244-1.711-.472-.447-.4-1.483-.869-1.934-2.216-2-4.7-3.837-7.158-5.935-.73-.623-1.31.055-2.04-.569-.169-.145.256-.979.111-1.1-.093-.068-.426.148-.528.076-.623-.449-.395-.765-1.018-1.215-.871-.63-1.619-1.448-2.5-2.066-2.705-1.895-6.481-2.928-10.169-5.2-.457-.276-.221-.664-.686-.926-1.54-.866-2.954-1.769-4.147-2.326-.519-.243-1.193-.04-1.7-.261-.675-.224-1.02-1.373-1.693-1.6s-1.75.74-2.434.527a90.213,90.213,0,0,0-8.7-2.723c-.664-.132-1.227-.916-1.906-1.024-.1-.015-.2.725-.3.715-.475-.044-.938-.844-1.465-.9-.456-.045-.926.069-1.224.042-3.262-.187-6.537.608-9.753.8-.6.036-1.352-.712-1.907-.665-.1.008-.034,1.24-.126,1.247-.889.14-1.968-.891-2.852-.714-3.212.639-6.308,2.029-9.508,3.058-.665.213-1.531-.21-2.167.022-.2.071-.058.428-.253.5-.378.158-.785.384-1.222.559-.518.208-.976.68-1.368.843-2.546,1.2-5.1,2.425-7.6,3.864-2.66,1.53-4.808,2.646-7.051,4.189,5.562,2.443,10.695,5.661,16.34,8.942,5.284,3.071,10.492,6.655,15.77,10.443,4.989,3.58,9.442,8.075,14.359,12.281C453.048,242.649,458.3,246.233,462.859,250.8Z" transform="translate(-233.212 -109.798)"/><path class="cls-2" d="M357.386,323.825c-1.445-1.166-2.889-2.365-4.341-3.426-2.01-1.47-3.537-2.089-5.58-3.37a11.358,11.358,0,0,1-1.1-.8c-.43-.29-.518-.382-1.189-.837-.007,0,.009-.013.013-.019-2.268-1.445-4.629-2.792-6.873-4.1-.905,3.314-1.639,6.592-2.713,9.685a79.893,79.893,0,0,0-2.836,9.55c-.678,3.146-2.037,6.171-2.6,9.355-.561,3.169-.153,6.5-.628,9.706-.472,3.183-1.78,6.258-2.195,9.475-.407,3.16-.125,6.372-.283,9.555-.155,3.143.03,6.318-.055,9.538-.082,3.133-.939,6.6-1.113,9.855,2.839-.106,6,.243,8.757.2,2.83-.048,5.6-1.15,8.369-1.214,2.813-.067,5.562-.578,8.335-.743,2.8-.168,5.556-.169,8.336-.523,2.806-.353,5.74.22,8.525-.234s5.4-1.854,8.18-2.385,5.756-.014,8.527-.6c2.752-.584,5.337-1.995,8.1-2.616,3.191-.716,6.617-1.587,9.624-2.328-1.268-2.386-3.577-4.706-5.081-7.1-1.439-2.291-2.13-5.147-3.744-7.469-1.553-2.232-3.948-3.932-5.626-6.213-1.612-2.19-3.111-4.493-4.909-6.652-1.736-2.087-3.366-4.322-5.266-6.4-1.837-2.007-3.539-4.218-5.521-6.233-2.07-2.1-4.612-3.6-6.678-5.493-2.173-1.99-3.831-4.456-6-6.234-.392-.322-.779-.6-1.17-.923" transform="translate(-233.212 -109.798)"/><path class="cls-2" d="M331.343,265.887c2.021-4.468,3.88-9.019,6.135-13.375s5.185-8.33,7.686-12.548c2.616-4.416,5.268-8.779,8.163-13.016,1.417-2.072,2.105-4.652,3.568-6.69.112-.15.885.33.985.2,1-1.267,1.941-2.567,2.972-3.807,1.665-2.007,3.678-4.413,5.425-6.353a89.678,89.678,0,0,0-12.634-4.631c-5.156-1.557-10.509-1.865-15.7-2.405-5.41-.563-10.774-1.839-15.912-1.3-5.466.573-10.593,2.51-15.379,4.326-3.68,1.4-9.187,3.529-13.75,7.545-3.674,3.234-6.282,7.866-7.931,13.325a29.386,29.386,0,0,0,1.252,19.931,51.731,51.731,0,0,0,11,17.331c3.75,3.751,8.794,6.172,13.5,9.086a81.468,81.468,0,0,0,14.3,7.572C326.994,275.658,329.142,270.753,331.343,265.887Z" transform="translate(-233.212 -109.798)"/><path class="cls-2" d="M510.812,410.332a62.2,62.2,0,0,0,3.249-15.541,76.277,76.277,0,0,0,.187-15.881,84.152,84.152,0,0,0-3.1-15.611c-1.286-4.256-3.433-7.916-5.3-11.786-.744.67-1.4.494-2.157,1.152-1.823,1.591-3.294,3.579-5.133,5.15a10.5,10.5,0,0,1-1.951,1.138c-.827.613-1.669,1.193-2.508,1.791-4.551,3.265-8.869,6.89-13.646,9.815s-10.084,4.909-15.042,7.512c-4.938,2.594-9.587,5.378-14.477,7.561-5.007,2.236-10.11,4.329-15.219,6.227a83.883,83.883,0,0,0,7.1,14.713,70.236,70.236,0,0,0,10.256,12.541c5.305,5.305,10.762,9.772,16.527,12.129a30.784,30.784,0,0,0,20.386,1.46c5.459-1.648,9.154-5.64,12.388-9.314A46.63,46.63,0,0,0,510.812,410.332Z" transform="translate(-233.212 -109.798)"/><path class="cls-2" d="M484.849,200.556a11.965,11.965,0,1,1-.124-16.759A11.819,11.819,0,0,1,484.849,200.556Z" transform="translate(-233.212 -109.798)"/><path class="cls-2" d="M533.091,248.8a11.79,11.79,0,0,1-16.71.123,11.887,11.887,0,1,1,16.811-16.81A11.764,11.764,0,0,1,533.091,248.8Z" transform="translate(-233.212 -109.798)"/></svg>